<?xml version="1.0" standalone="no"?>
<svg viewBox="0 0 200 200" xmlns="http://www.w3.org/2000/svg">
  <path fill="#BAE6FF" d="M45.6,-59.3C61.2,-51.5,77.3,-40.9,85.4,-25.5C93.5,-10.1,93.5,10.2,84.1,23.6C74.6,37.1,55.6,43.8,40,48.3C24.4,52.9,12.2,55.2,-3.6,60.1C-19.3,65.1,-38.7,72.5,-52,67.2C-65.3,61.9,-72.6,43.9,-73.6,27.2C-74.5,10.4,-69.1,-5.1,-65.5,-22.9C-61.9,-40.7,-60.3,-60.7,-49.7,-70.1C-39.1,-79.6,-19.5,-78.5,-2.3,-75.4C15,-72.3,30.1,-67.2,45.6,-59.3Z" transform="translate(100 100)" />
</svg>
